# xmcd
#
# Track frame offsets: 
#        182
#        10300
#        21790
#        34785
#        49030
#        60960
#        71360
#        83705
#        96517
#        104665
#        114877
#        124755
#        134502
#        145415
#        154862
#        164822
#        176710
#        190117
#        207940
#        220987
#        231847
#        243255
#        256335
#        270052
#        284910
#
# Disc length: 3952 seconds
#
# Revision: 1
# Processed by: cddbd v1.5.2PL0 Copyright (c) Steve Scherf et al.
# Submitted via: ExactAudioCopyFreeDBPlugin 1.0
#
DISCID=6d0f6e19
DTITLE=Various Artist - 50 Chart toppers - Country number ones - CD 1
DYEAR=1994
DGENRE=Country
TTITLE0=Merle Travis - Divorce Me C.O.D.
TTITLE1=Ernest Tubb - Slippin' Around
TTITLE2=Hank Williams - Jambalaya
TTITLE3=Kitty Wells - It Wasn't God Who Make Honky Tonk Angels
TTITLE4=Jim Reeves - Mexican Joe
TTITLE5=Webb Pierce - In The Jailhouse Now
TTITLE6=Johnny Cash - I Walk The Line
TTITLE7=Bobby Helms - Fraulein
TTITLE8=Don Gibson - Blue Blue Day
TTITLE9=Ferlin Husky - Wings Of A Dove
TTITLE10=Hank Locklin - Please Help Me, I'm Falling
TTITLE11=Faron Young - Hello Walls
TTITLE12=George Jones - Tender Years
TTITLE13=Warner Mack - The Bridge Washed Out
TTITLE14=Buck Owens - I've Got A Tiger By The Tail
TTITLE15=Del Reeves - Girl On the Billboard
TTITLE16=David Houston - Almost Persuaded
TTITLE17=Bobby Goldsboro - Honey
TTITLE18=Lynn Anderson - Rose Garden
TTITLE19=Conway Twitty - Hello Darlin'
TTITLE20=Donna Fargo - The Happiest Girl In The Whole USA
TTITLE21=Charly Rich - The Most Beautiful Girl
TTITLE22=Bobby Bare - marie Laveau
TTITLE23=Melba Montgomery - No Charge
TTITLE24=Freddy Fender - Before The Next Teardrop Falls
EXTD=
EXTT0=
EXTT1=
EXTT2=
EXTT3=
EXTT4=
EXTT5=
EXTT6=
EXTT7=
EXTT8=
EXTT9=
EXTT10=
EXTT11=
EXTT12=
EXTT13=
EXTT14=
EXTT15=
EXTT16=
EXTT17=
EXTT18=
EXTT19=
EXTT20=
EXTT21=
EXTT22=
EXTT23=
EXTT24=
PLAYORDER=
